# xmcd
#
# Track frame offsets:
#	150
#	11367
#	24445
#	33902
#	41540
#	58307
#	68110
#	83180
#	92102
#	106962
#	116715
#	128300
#	140042
#	149585
#	158805
#	171977
#
# Disc length: 2349 seconds
#
# Revision: 0
# Processed by: cddbd v1.4PL0 Copyright (c) Steve Scherf et al.
# Submitted via: dBpowerAMP V4.0
#
DISCID=d8092b10
DTITLE=Carl Jackson - Songs Of The South
DYEAR=2001
DGENRE=Bluegrass
TTITLE0=Earl's Breakdown
TTITLE1=On My Mind
TTITLE2=John Henry
TTITLE3=Grey Eagle
TTITLE4=You Are My Flower
TTITLE5=Home Sweet Home
TTITLE6=The Lonesome River
TTITLE7=Careless Love
TTITLE8=Keep On The Sunny Side
TTITLE9=Little Darling Pal Of Mine
TTITLE10=Jesse And Me
TTITLE11=Reuben
TTITLE12=Lay Down My Old Guitar
TTITLE13=Ground Speed
TTITLE14=Banjo Man
TTITLE15=Foggy Mountain Breakdown (Refrain)
EXTD=Tracks 1, 3, 4, 5, 6, 8, 9, 10, 12, 14, 15 and 16 from\nCarl Jackson: Banjo Man - A Tribute To Earl Scruggs\n(SUG-CD-3715)
EXTT0=
EXTT1=
EXTT2=
EXTT3=
EXTT4=
EXTT5=
EXTT6=
EXTT7=
EXTT8=
EXTT9=
EXTT10=
EXTT11=
EXTT12=
EXTT13=
EXTT14=
EXTT15=
PLAYORDER=
